<svg version="1.1" xmlns="http://www.w3.org/2000/svg" xmlns:xlink="http://www.w3.org/1999/xlink" x="0px" y="0px" viewBox="0 0 74 30" role="img" aria-label="PACE Gallery" xml:space="preserve">
  <g>
    <defs>
      <rect id="pace-clip-1" width="74" height="30"></rect>
    </defs>
    <clipPath id="pace-clip-a">
      <use xlink:href="#pace-clip-1" style="overflow:visible;"></use>
    </clipPath>
    <g style="clip-path:url(#pace-clip-a);">
      <g>
        <defs>
          <rect id="pace-clip-2" x="-0.1" width="74.1" height="30"></rect>
        </defs>
        <clipPath id="pace-clip-b">
          <use xlink:href="#pace-clip-2" style="overflow:visible;"></use>
        </clipPath>
        <g style="clip-path:url(#pace-clip-b);">
          <path d="M13.7,16.8v3.7h-2.6v-11h5c2.8,0,4.4,1.2,4.4,3.6s-1.6,3.6-4.4,3.6H13.7z M15.8,14.7c1.4,0,2-0.6,2-1.6
            c0-1.1-0.6-1.6-2-1.6h-2.1v3.2L15.8,14.7z"></path>
          <path d="M31.8,18.1h-4.7l-0.9,2.4h-2.6l4.4-11h3l4.4,11h-2.8L31.8,18.1z M27.9,16.1h3.2L29.5,12h0L27.9,16.1z"></path>
          <path d="M44.5,18.6c1.4,0,2-0.8,2.2-1.8h2.6c-0.4,2.3-2,3.9-4.8,3.9c-3.3,0-5.5-2.3-5.5-5.7c0-3.3,2.1-5.7,5.5-5.7
            c2.9,0,4.4,1.6,4.8,3.9h-2.6c-0.2-1.1-0.9-1.8-2.2-1.8c-1.8,0-2.7,1.4-2.7,3.6C41.8,17.3,42.8,18.6,44.5,18.6z"></path>
          <path d="M54.7,20.5v-11h8.4v2h-5.8v2.4h5.1v2h-5.1v2.4h5.9v2.1H54.7z"></path>
          <path d="M74.1,30H-0.1V0h74.1V30z M2,28h70V2H2V28z"></path>
        </g>
      </g>
    </g>
  </g>
</svg>
