<svg xmlns="http://www.w3.org/2000/svg" viewBox="0 0 108.155 25.8674" role="img" aria-label="Sotheby's"><path d="M99.9496 5.6126l-4.8878 6.1872h-.6023l2.5714-6.1866M6.0626 20.6076c-1.6461 0-3.1-.409-4.1699-.954l-1.07.954H.329L0 14.5565l.5756-.0542c1.7285 3.9251 3.7585 5.1781 5.6518 5.1781 1.9751 0 3.1275-1.2805 3.1275-2.9973 0-1.6358-.6311-2.4261-3.2099-3.4888-.8777-.3547-1.8927-.7092-2.7435-1.1183C1.4813 11.1227.4663 9.623.4663 7.6334c0-3.2441 2.8253-5.2063 5.5963-5.2063 1.372 0 2.3047.3814 3.2099.8996l1.07-.9265h.4662l.467 5.3424-.5488.0819C9.2175 4.8257 7.599 3.3542 5.8161 3.3542c-1.5638 0-2.6062 1.0351-2.6062 2.6434 0 1.2811.548 2.2627 2.4963 3.108.96.4358 2.085.8172 3.1 1.308 2.2222 1.0632 3.2647 2.4536 3.2647 4.4701 0 3.5981-3.045 5.724-6.0083 5.724m14.403.0259c-4.1699 0-6.2274-2.9707-6.2274-6.5955 0-3.3527 2.3596-6.5692 6.5845-6.5692 4.1705 0 6.1725 2.9437 6.1725 6.5417 0 3.3802-2.3047 6.623-6.5296 6.623zm.1099-12.4011c-1.9202 0-3.1 2.1257-3.1 5.86 0 3.6796 1.2616 5.7775 3.2099 5.7775 2.0025 0 3.1-2.1252 3.1-5.8594 0-3.6799-1.1799-5.7781-3.21-5.7781m12.3742 12.2921c-2.1673 0-2.8527-1.062-2.8527-3.0244V9.3496h-2.0313v-.3814l2.525-1.9899 2.0026-2.5897h.4114v3.5438h4.1699v1.4172h-4.17v7.06c0 1.0906.1649 1.745.7142 2.1257.4657.3272 1.0974.4365 2.002.4365.4388 0 .9875-.0275 1.5087-.0542l.0275.3814c-1.07.6537-2.826 1.2256-4.3072 1.2256m12.8119-10.984c-1.0424 0-1.839.1909-2.854.6817v9.0222l1.5363.5719v.3815h-6.2v-.3815l1.7292-.572V2.781l-1.8927-1.2267v-.273L42.799 0l.1086.0819v9.5403l.1105.0544c1.6187-1.5266 3.1-2.2077 4.5813-2.2077 2.4695 0 3.512 1.8536 3.512 3.7891v7.9864l1.7279.5719v.3816h-6.2v-.3816l1.5363-.5719V12.375c0-1.7711-.713-2.8344-2.414-2.8344m11.141 3.571c0 3.462.9875 5.7245 4.0875 5.7245 1.372 0 2.4975-.2728 4.1425-.8722l.1647.3272c-1.6736 1.4434-3.5387 2.3431-5.2947 2.3431-3.7586 0-6.2287-2.5617-6.2287-6.3501 0-3.8977 2.9633-6.8146 6.311-6.8146 3.6213 0 5.3779 2.4255 5.3498 5.642zm5.4596-.9264c-.1099-2.5624-.8508-3.952-2.4694-3.952-1.5913 0-2.8255 1.6618-2.9627 4.1973l5.432-.2453m10.3705 8.4484c-1.4264 0-3.319-.3266-4.6362-.7086V2.7808L66.1762 1.554v-.273L70.9223 0l.1099.0819v9.1314l.1093.055c.9607-.954 2.2772-1.7994 3.9783-1.7994 2.6061 0 4.9652 2.372 4.9652 6.2696 0 3.8976-2.9627 6.8951-7.3524 6.8951zm.4675-11.2567c-.8239 0-1.51.1636-2.168.4364v8.6408c.8504.8721 1.9477 1.253 2.9902 1.253 1.6188 0 2.9627-1.4441 2.9627-5.2876 0-3.3795-1.454-5.0426-3.7849-5.0426m14.4025 11.6657c-1.3714 3.3526-2.6598 4.8248-4.3615 4.8248-1.4538 0-2.1399-.8447-2.1399-1.7175 0-.8447.7678-1.5534 1.6461-1.5534.9327 0 1.4814.4901 2.1399 1.3081.5212-.5727 1.1517-1.5534 1.5089-2.317l.4662-1.0358-4.856-11.6381-1.6735-.6542v-.354h6.695v.354l-1.7567.6542L88.2337 16.9h.1374l2.6886-7.7953-1.5911-.8453v-.354h4.7192v.354l-1.784.8995-4.8012 11.8836m15.641-.4089c-1.5087 0-2.7973-.2453-4.0601-.7355l-.0273-3.5975.5486-.0548c1.4814 2.5897 2.6068 3.5705 4.0601 3.5705 1.2903 0 2.085-.8172 2.085-2.0714 0-1.4174-1.4533-1.9624-3.017-2.5893-1.729-.736-3.5663-1.5532-3.5663-3.8159 0-2.1533 1.9196-3.8708 4.7186-3.8708 1.07 0 2.5788.2185 3.3185.4908l.0825 3.2433-.5213.1367c-1.3434-2.2081-2.221-3.053-3.4833-3.053-1.153 0-1.8653.763-1.8653 1.7444 0 1.418 1.4814 1.9899 3.045 2.6167 1.7274.7086 3.5938 1.5264 3.5938 3.8433 0 2.5355-2.2497 4.1425-4.9114 4.1425" fill="#231f20"/></svg>